<svg width="106" height="103" viewBox="0 0 106 103" fill="none" xmlns="http://www.w3.org/2000/svg">
<rect x="0.241074" width="105.759" height="103" rx="30" fill="#FF6B00"/>
<path d="M42.0812 29.2451C42.0812 29.5706 41.9673 29.8636 41.7394 30.124C41.5278 30.3682 41.2593 30.5065 40.9337 30.5391C39.8758 30.6204 38.826 30.6937 37.7843 30.7588C36.7427 30.8239 35.6928 30.8727 34.6349 30.9053V47.9951C34.6349 48.3206 34.7 48.6217 34.8302 48.8984C34.9767 49.1751 35.1557 49.4111 35.3673 49.6064C35.5952 49.8018 35.8475 49.9564 36.1242 50.0703C36.4009 50.1842 36.6857 50.2412 36.9787 50.2412C37.4181 50.2412 37.7762 50.1273 38.0529 49.8994C38.3458 49.6553 38.59 49.3623 38.7853 49.0205C38.9806 48.6624 39.1352 48.2881 39.2492 47.8975C39.3794 47.5068 39.4852 47.1569 39.5665 46.8477C39.6154 46.5547 39.7619 46.3187 40.006 46.1396C40.2501 45.9443 40.5187 45.8467 40.8117 45.8467C41.186 45.8467 41.4871 45.9932 41.715 46.2861C41.9591 46.5628 42.0812 46.8477 42.0812 47.1406V47.4092C41.6092 49.5739 40.6815 51.2503 39.298 52.4385C37.9145 53.6104 36.2055 54.1963 34.171 54.1963C33.2433 54.1963 32.2912 54.0742 31.3146 53.8301C30.338 53.5859 29.451 53.1302 28.6535 52.4629C27.8722 51.7956 27.2293 50.876 26.7248 49.7041C26.2202 48.516 25.9679 46.9779 25.9679 45.0898V30.8564C25.2355 30.8076 24.4949 30.7588 23.7462 30.71C23.0138 30.6611 22.2733 30.6042 21.5246 30.5391C21.199 30.4902 20.9223 30.3438 20.6945 30.0996C20.4829 29.8555 20.3771 29.5706 20.3771 29.2451C20.3771 28.8708 20.5154 28.5697 20.7921 28.3418C21.0851 28.1139 21.3781 28 21.671 28H21.7687C22.4848 28.0488 23.1847 28.0977 23.8683 28.1465C24.5682 28.1953 25.268 28.2441 25.9679 28.293V19.9922C25.9679 19.7155 26.0574 19.4632 26.2365 19.2354C26.4155 18.9912 26.6434 18.8285 26.9201 18.7471L33.0236 17.1113C33.0724 17.0788 33.1294 17.0625 33.1945 17.0625C33.2596 17.0462 33.3165 17.0381 33.3654 17.0381C33.7397 17.0381 34.0408 17.1764 34.2687 17.4531C34.5128 17.7298 34.6349 18.0309 34.6349 18.3564V28.3418C35.6277 28.3092 36.6287 28.2686 37.6378 28.2197C38.6632 28.1546 39.6886 28.0814 40.714 28H40.8117C41.1697 28 41.4708 28.1302 41.715 28.3906C41.9591 28.6348 42.0812 28.9196 42.0812 29.2451ZM79.8742 29.2451C79.8742 29.5706 79.7602 29.8636 79.5324 30.124C79.3208 30.3682 79.0522 30.5065 78.7267 30.5391C77.6688 30.6204 76.619 30.6937 75.5773 30.7588C74.5356 30.8239 73.4858 30.8727 72.4279 30.9053V47.9951C72.4279 48.3206 72.493 48.6217 72.6232 48.8984C72.7697 49.1751 72.9487 49.4111 73.1603 49.6064C73.3882 49.8018 73.6404 49.9564 73.9171 50.0703C74.1938 50.1842 74.4787 50.2412 74.7716 50.2412C75.2111 50.2412 75.5692 50.1273 75.8458 49.8994C76.1388 49.6553 76.383 49.3623 76.5783 49.0205C76.7736 48.6624 76.9282 48.2881 77.0421 47.8975C77.1723 47.5068 77.2781 47.1569 77.3595 46.8477C77.4083 46.5547 77.5548 46.3187 77.799 46.1396C78.0431 45.9443 78.3117 45.8467 78.6046 45.8467C78.979 45.8467 79.2801 45.9932 79.508 46.2861C79.7521 46.5628 79.8742 46.8477 79.8742 47.1406V47.4092C79.4022 49.5739 78.4744 51.2503 77.091 52.4385C75.7075 53.6104 73.9985 54.1963 71.964 54.1963C71.0363 54.1963 70.0841 54.0742 69.1076 53.8301C68.131 53.5859 67.244 53.1302 66.4464 52.4629C65.6652 51.7956 65.0223 50.876 64.5177 49.7041C64.0132 48.516 63.7609 46.9779 63.7609 45.0898V30.8564C63.0285 30.8076 62.2879 30.7588 61.5392 30.71C60.8068 30.6611 60.0662 30.6042 59.3175 30.5391C58.992 30.4902 58.7153 30.3438 58.4874 30.0996C58.2759 29.8555 58.1701 29.5706 58.1701 29.2451C58.1701 28.8708 58.3084 28.5697 58.5851 28.3418C58.8781 28.1139 59.171 28 59.464 28H59.5617C60.2778 28.0488 60.9777 28.0977 61.6613 28.1465C62.3611 28.1953 63.061 28.2441 63.7609 28.293V19.9922C63.7609 19.7155 63.8504 19.4632 64.0294 19.2354C64.2085 18.9912 64.4363 18.8285 64.713 18.7471L70.8165 17.1113C70.8654 17.0788 70.9223 17.0625 70.9874 17.0625C71.0525 17.0462 71.1095 17.0381 71.1583 17.0381C71.5327 17.0381 71.8338 17.1764 72.0617 17.4531C72.3058 17.7298 72.4279 18.0309 72.4279 18.3564V28.3418C73.4207 28.3092 74.4217 28.2686 75.4308 28.2197C76.4562 28.1546 77.4816 28.0814 78.507 28H78.6046C78.9627 28 79.2638 28.1302 79.508 28.3906C79.7521 28.6348 79.8742 28.9196 79.8742 29.2451Z" fill="white"/>
<path d="M73.8125 59.7768C73.8125 64.6878 72.4641 69.4885 69.9378 73.5718C67.4115 77.6551 63.8208 80.8377 59.6197 82.717C55.4187 84.5964 50.7959 85.0881 46.3361 84.13C41.8763 83.1719 37.7796 80.8071 34.5643 77.3345L37.7847 73.8565C40.3631 76.6411 43.6482 78.5375 47.2246 79.3058C50.801 80.0741 54.508 79.6798 57.8769 78.1728C61.2457 76.6657 64.1251 74.1136 66.151 70.8391C68.1769 67.5647 69.2582 63.7149 69.2582 59.7768H73.8125Z" fill="white"/>
</svg>
